<svg xmlns="http://www.w3.org/2000/svg" viewBox="0 0 1200 500" width="1200" height="500">
  <defs>
    <linearGradient id="h2bg" x1="0%" y1="0%" x2="100%" y2="100%">
      <stop offset="0%" stop-color="#F59E0B"/>
      <stop offset="100%" stop-color="#F97316"/>
    </linearGradient>
    <filter id="h2sh">
      <feDropShadow dx="0" dy="8" stdDeviation="20" flood-opacity="0.3"/>
    </filter>
  </defs>
  <rect width="1200" height="500" fill="url(#h2bg)"/>
  <!-- Decorative shapes -->
  <circle cx="950" cy="100" r="150" fill="white" opacity="0.06"/>
  <circle cx="1100" cy="300" r="100" fill="white" opacity="0.05"/>
  <circle cx="750" cy="420" r="80" fill="white" opacity="0.04"/>
  <circle cx="150" cy="80" r="50" fill="white" opacity="0.06"/>
  <!-- Geometric accents -->
  <polygon points="850,50 880,80 850,110" fill="white" opacity="0.06"/>
  <polygon points="1000,350 1030,380 1000,410" fill="white" opacity="0.05"/>
  <rect x="800" y="200" width="30" height="30" rx="4" fill="white" opacity="0.05" transform="rotate(30,815,215)"/>
  <!-- Text -->
  <text x="100" y="180" font-family="system-ui" font-size="18" font-weight="600" fill="#fef3c7" letter-spacing="6">NEW COLLECTION</text>
  <text x="100" y="250" font-family="system-ui" font-size="72" font-weight="900" fill="white" letter-spacing="4">FASHION</text>
  <text x="100" y="300" font-family="system-ui" font-size="22" fill="#fef3c7">Step out in style with trending footwear</text>
  <rect x="100" y="330" width="200" height="55" rx="28" fill="white"/>
  <text x="200" y="364" text-anchor="middle" font-family="system-ui" font-size="18" font-weight="700" fill="#F97316">EXPLORE</text>
  <!-- Sneaker illustration -->
  <g filter="url(#h2sh)" transform="translate(780,260)">
    <path d="M-120,35 L120,35 L130,50 C133,55 128,60 123,60 L-108,60 C-115,60 -126,55 -128,50 Z" fill="#e5e7eb"/>
    <path d="M-115,25 L125,25 L120,35 L-120,35 Z" fill="white"/>
    <path d="M-108,-25 C-108,-50 -72,-65 -25,-65 L70,-65 C95,-65 120,-52 125,-35 L125,25 L-115,25 Z" fill="#F97316"/>
    <path d="M-108,-25 C-108,-45 -88,-60 -58,-65 L-25,-65 L-25,25 L-115,25 Z" fill="#ea580c"/>
    <path d="M12,-65 C12,-88 30,-95 48,-88 L60,-65 Z" fill="#fb923c"/>
    <path d="M-70,0 C-25,-30 50,-25 108,-5" stroke="white" stroke-width="5" fill="none" stroke-linecap="round"/>
    <circle cx="-5" y="-48" r="3" fill="#c2410c"/>
    <circle cx="13" y="-50" r="3" fill="#c2410c"/>
    <circle cx="31" y="-48" r="3" fill="#c2410c"/>
    <circle cx="49" y="-46" r="3" fill="#c2410c"/>
    <path d="M-8,-50 L11,-52 M10,-50 L29,-48 M28,-50 L47,-48" stroke="white" stroke-width="2" fill="none" stroke-linecap="round"/>
    <path d="M82,-58 C88,-48 90,-32 92,-15" stroke="#ea580c" stroke-width="4" fill="none"/>
    <rect x="112" y="-55" width="10" height="25" rx="4" fill="#fb923c"/>
  </g>
</svg>