<svg xmlns="http://www.w3.org/2000/svg" viewBox="0 0 300 300" width="300" height="300">
  <defs>
    <linearGradient id="ag" x1="0%" y1="0%" x2="100%" y2="100%">
      <stop offset="0%" stop-color="#f87171"/>
      <stop offset="100%" stop-color="#EF4444"/>
    </linearGradient>
  </defs>
  <rect width="300" height="300" rx="24" fill="url(#ag)"/>
  <circle cx="260" cy="40" r="50" fill="white" opacity="0.06"/>
  <circle cx="40" cy="260" r="40" fill="white" opacity="0.06"/>
  <circle cx="150" cy="140" r="65" fill="white"/>
  <!-- Watch -->
  <circle cx="130" cy="130" r="18" fill="#EF4444"/>
  <circle cx="130" cy="130" r="15" fill="#fecaca"/>
  <circle cx="130" cy="130" r="13" fill="white"/>
  <!-- Watch hands -->
  <line x1="130" y1="130" x2="130" y2="120" stroke="#EF4444" stroke-width="1.5"/>
  <line x1="130" y1="130" x2="138" y2="128" stroke="#EF4444" stroke-width="1"/>
  <circle cx="130" cy="130" r="1.5" fill="#EF4444"/>
  <!-- Watch band top -->
  <rect x="124" y="108" width="12" height="10" rx="2" fill="#EF4444"/>
  <!-- Watch band bottom -->
  <rect x="124" y="148" width="12" height="10" rx="2" fill="#EF4444"/>
  <!-- Bag -->
  <rect x="155" y="120" width="32" height="38" rx="4" fill="#EF4444"/>
  <rect x="157" y="122" width="28" height="34" rx="3" fill="#fca5a5"/>
  <!-- Bag handle -->
  <path d="M163,120 C163,110 179,110 179,120" stroke="#EF4444" stroke-width="3" fill="none"/>
  <!-- Bag clasp -->
  <rect x="168" y="134" width="6" height="4" rx="1" fill="#EF4444"/>
  <text x="150" y="230" text-anchor="middle" font-family="system-ui" font-size="14" font-weight="700" fill="white">Accessories</text>
</svg>