<svg xmlns="http://www.w3.org/2000/svg" viewBox="0 0 300 300" width="300" height="300">
  <defs>
    <linearGradient id="aug" x1="0%" y1="0%" x2="100%" y2="100%">
      <stop offset="0%" stop-color="#818cf8"/>
      <stop offset="100%" stop-color="#6366F1"/>
    </linearGradient>
  </defs>
  <rect width="300" height="300" rx="24" fill="url(#aug)"/>
  <circle cx="260" cy="40" r="50" fill="white" opacity="0.06"/>
  <circle cx="40" cy="260" r="40" fill="white" opacity="0.06"/>
  <circle cx="150" cy="140" r="65" fill="white"/>
  <!-- Car body -->
  <path d="M110,150 L115,130 C118,122 128,118 138,118 L162,118 C172,118 182,122 185,130 L190,150 L190,158 L110,158 Z" fill="#6366F1"/>
  <!-- Car top/windshield -->
  <path d="M128,118 L135,108 C137,105 142,103 148,103 L152,103 C158,103 163,105 165,108 L172,118" fill="#818cf8"/>
  <!-- Windshield -->
  <path d="M132,118 L137,108 C139,106 143,104 148,104 L152,104 C157,104 161,106 163,108 L168,118 Z" fill="#c7d2fe"/>
  <!-- Windows -->
  <rect x="138" y="108" width="10" height="10" rx="1" fill="#c7d2fe"/>
  <rect x="152" y="108" width="10" height="10" rx="1" fill="#c7d2fe"/>
  <!-- Headlights -->
  <rect x="108" y="138" width="8" height="5" rx="2" fill="#fbbf24"/>
  <rect x="184" y="138" width="8" height="5" rx="2" fill="#fbbf24"/>
  <!-- Wheels -->
  <circle cx="130" cy="158" r="10" fill="#374151"/>
  <circle cx="130" cy="158" r="6" fill="#6b7280"/>
  <circle cx="130" cy="158" r="3" fill="#d1d5db"/>
  <circle cx="170" cy="158" r="10" fill="#374151"/>
  <circle cx="170" cy="158" r="6" fill="#6b7280"/>
  <circle cx="170" cy="158" r="3" fill="#d1d5db"/>
  <!-- Door line -->
  <line x1="150" y1="118" x2="150" y2="150" stroke="#4f46e5" stroke-width="1"/>
  <!-- Door handle -->
  <rect x="154" y="135" width="8" height="2" rx="1" fill="#4f46e5"/>
  <text x="150" y="230" text-anchor="middle" font-family="system-ui" font-size="14" font-weight="700" fill="white">Automotive</text>
</svg>