<svg xmlns="http://www.w3.org/2000/svg" viewBox="0 0 300 300" width="300" height="300">
  <defs>
    <linearGradient id="fg" x1="0%" y1="0%" x2="100%" y2="100%">
      <stop offset="0%" stop-color="#a855f7"/>
      <stop offset="100%" stop-color="#7C3AED"/>
    </linearGradient>
  </defs>
  <rect width="300" height="300" rx="24" fill="url(#fg)"/>
  <circle cx="260" cy="40" r="50" fill="white" opacity="0.06"/>
  <circle cx="40" cy="260" r="40" fill="white" opacity="0.06"/>
  <circle cx="150" cy="140" r="65" fill="white"/>
  <!-- T-shirt icon -->
  <path d="M120,125 L130,115 L145,120 L150,112 L155,120 L170,115 L180,125 L168,130 L168,170 L132,170 L132,130 Z" fill="#7C3AED"/>
  <!-- Collar -->
  <path d="M140,118 L150,125 L160,118" stroke="#7C3AED" stroke-width="2" fill="none"/>
  <!-- Sleeve lines -->
  <line x1="132" y1="135" x2="120" y2="125" stroke="#7C3AED" stroke-width="1.5"/>
  <line x1="168" y1="135" x2="180" y2="125" stroke="#7C3AED" stroke-width="1.5"/>
  <!-- Hanger -->
  <path d="M150,105 L150,112" stroke="#7C3AED" stroke-width="2"/>
  <path d="M140,108 L150,100 L160,108" stroke="#7C3AED" stroke-width="2" fill="none"/>
  <!-- Text -->
  <text x="150" y="230" text-anchor="middle" font-family="system-ui" font-size="14" font-weight="700" fill="white">Fashion</text>
</svg>