<svg xmlns="http://www.w3.org/2000/svg" viewBox="0 0 300 300" width="300" height="300">
  <defs>
    <linearGradient id="gg" x1="0%" y1="0%" x2="100%" y2="100%">
      <stop offset="0%" stop-color="#a78bfa"/>
      <stop offset="100%" stop-color="#8B5CF6"/>
    </linearGradient>
  </defs>
  <rect width="300" height="300" rx="24" fill="url(#gg)"/>
  <circle cx="260" cy="40" r="50" fill="white" opacity="0.06"/>
  <circle cx="40" cy="260" r="40" fill="white" opacity="0.06"/>
  <circle cx="150" cy="140" r="65" fill="white"/>
  <!-- Controller body -->
  <path d="M118,135 C118,120 130,112 140,118 L145,125 L155,125 L160,118 C170,112 182,120 182,135 L182,148 C182,155 175,158 168,155 L160,148 L140,148 L132,155 C125,158 118,155 118,148 Z" fill="#8B5CF6"/>
  <!-- D-pad -->
  <rect x="126" y="128" width="10" height="3" rx="1" fill="#6d28d9"/>
  <rect x="129" y="125" width="3" height="10" rx="1" fill="#6d28d9"/>
  <!-- Buttons -->
  <circle cx="168" cy="127" r="3" fill="#ef4444"/>
  <circle cx="175" cy="133" r="3" fill="#3b82f6"/>
  <circle cx="162" cy="133" r="3" fill="#22c55e"/>
  <circle cx="168" cy="139" r="3" fill="#eab308"/>
  <!-- Analog sticks -->
  <circle cx="136" cy="142" r="4" fill="#6d28d9"/>
  <circle cx="164" cy="142" r="4" fill="#6d28d9"/>
  <!-- Center button -->
  <circle cx="150" cy="133" r="3" fill="#a78bfa"/>
  <text x="150" y="230" text-anchor="middle" font-family="system-ui" font-size="14" font-weight="700" fill="white">Gaming</text>
</svg>