<svg xmlns="http://www.w3.org/2000/svg" viewBox="0 0 300 300" width="300" height="300">
  <defs>
    <linearGradient id="hg" x1="0%" y1="0%" x2="100%" y2="100%">
      <stop offset="0%" stop-color="#34d399"/>
      <stop offset="100%" stop-color="#10B981"/>
    </linearGradient>
  </defs>
  <rect width="300" height="300" rx="24" fill="url(#hg)"/>
  <circle cx="260" cy="40" r="50" fill="white" opacity="0.06"/>
  <circle cx="40" cy="260" r="40" fill="white" opacity="0.06"/>
  <circle cx="150" cy="140" r="65" fill="white"/>
  <!-- House icon -->
  <path d="M150,105 L125,125 L125,170 L175,170 L175,125 Z" fill="#10B981"/>
  <!-- Roof -->
  <path d="M118,128 L150,100 L182,128 Z" fill="#059669"/>
  <!-- Door -->
  <rect x="143" y="145" width="14" height="25" rx="2" fill="#059669"/>
  <circle cx="154" cy="158" r="1.5" fill="#34d399"/>
  <!-- Window -->
  <rect x="130" y="132" width="12" height="12" rx="1" fill="#d1fae5"/>
  <line x1="136" y1="132" x2="136" y2="144" stroke="#10B981" stroke-width="1"/>
  <line x1="130" y1="138" x2="142" y2="138" stroke="#10B981" stroke-width="1"/>
  <!-- Chimney -->
  <rect x="165" y="108" width="8" height="18" fill="#059669"/>
  <text x="150" y="230" text-anchor="middle" font-family="system-ui" font-size="14" font-weight="700" fill="white">Home</text>
</svg>