<svg xmlns="http://www.w3.org/2000/svg" viewBox="0 0 300 300" width="300" height="300">
  <defs>
    <linearGradient id="kg" x1="0%" y1="0%" x2="100%" y2="100%">
      <stop offset="0%" stop-color="#fb923c"/>
      <stop offset="100%" stop-color="#F97316"/>
    </linearGradient>
  </defs>
  <rect width="300" height="300" rx="24" fill="url(#kg)"/>
  <circle cx="260" cy="40" r="50" fill="white" opacity="0.06"/>
  <circle cx="40" cy="260" r="40" fill="white" opacity="0.06"/>
  <circle cx="150" cy="140" r="65" fill="white"/>
  <!-- Teddy bear -->
  <!-- Head -->
  <circle cx="150" cy="125" r="22" fill="#F97316"/>
  <!-- Ears -->
  <circle cx="133" cy="108" r="8" fill="#F97316"/>
  <circle cx="133" cy="108" r="5" fill="#fdba74"/>
  <circle cx="167" cy="108" r="8" fill="#F97316"/>
  <circle cx="167" cy="108" r="5" fill="#fdba74"/>
  <!-- Face -->
  <circle cx="150" cy="128" r="10" fill="#fed7aa"/>
  <!-- Eyes -->
  <circle cx="143" cy="122" r="3" fill="#1a1a1a"/>
  <circle cx="157" cy="122" r="3" fill="#1a1a1a"/>
  <circle cx="144" cy="121" r="1" fill="white"/>
  <circle cx="158" cy="121" r="1" fill="white"/>
  <!-- Nose -->
  <ellipse cx="150" cy="128" rx="3" ry="2" fill="#c2410c"/>
  <!-- Mouth -->
  <path d="M147,131 Q150,135 153,131" stroke="#c2410c" stroke-width="1.2" fill="none"/>
  <!-- Body -->
  <ellipse cx="150" cy="158" rx="18" ry="14" fill="#F97316"/>
  <!-- Belly -->
  <ellipse cx="150" cy="160" rx="10" ry="8" fill="#fed7aa"/>
  <!-- Arms -->
  <ellipse cx="130" cy="150" rx="7" ry="10" fill="#F97316" transform="rotate(-15,130,150)"/>
  <ellipse cx="170" cy="150" rx="7" ry="10" fill="#F97316" transform="rotate(15,170,150)"/>
  <!-- Star -->
  <polygon points="195,110 198,118 206,118 200,123 202,131 195,126 188,131 190,123 184,118 192,118" fill="#F97316" opacity="0.4"/>
  <text x="150" y="230" text-anchor="middle" font-family="system-ui" font-size="14" font-weight="700" fill="white">Kids</text>
</svg>