<svg xmlns="http://www.w3.org/2000/svg" viewBox="0 0 300 300" width="300" height="300">
  <defs>
    <linearGradient id="kg2" x1="0%" y1="0%" x2="100%" y2="100%">
      <stop offset="0%" stop-color="#2dd4bf"/>
      <stop offset="100%" stop-color="#14B8A6"/>
    </linearGradient>
  </defs>
  <rect width="300" height="300" rx="24" fill="url(#kg2)"/>
  <circle cx="260" cy="40" r="50" fill="white" opacity="0.06"/>
  <circle cx="40" cy="260" r="40" fill="white" opacity="0.06"/>
  <circle cx="150" cy="140" r="65" fill="white"/>
  <!-- Pot body -->
  <rect x="122" y="132" width="56" height="35" rx="6" fill="#14B8A6"/>
  <rect x="124" y="134" width="52" height="31" rx="4" fill="#0d9488"/>
  <!-- Pot rim -->
  <rect x="118" y="128" width="64" height="8" rx="4" fill="#14B8A6"/>
  <!-- Lid -->
  <path d="M122,128 C122,118 178,118 178,128" fill="#14B8A6"/>
  <path d="M124,127 C124,119 176,119 176,127" fill="#0d9488"/>
  <!-- Lid knob -->
  <circle cx="150" cy="118" r="5" fill="#14B8A6"/>
  <circle cx="150" cy="118" r="3" fill="#f0fdfa"/>
  <!-- Handles -->
  <rect x="110" y="135" width="14" height="6" rx="3" fill="#14B8A6"/>
  <rect x="176" y="135" width="14" height="6" rx="3" fill="#14B8A6"/>
  <!-- Steam lines -->
  <path d="M140,112 C138,105 142,100 140,93" stroke="#99f6e4" stroke-width="1.5" fill="none" stroke-linecap="round"/>
  <path d="M150,110 C148,103 152,98 150,91" stroke="#99f6e4" stroke-width="1.5" fill="none" stroke-linecap="round"/>
  <path d="M160,112 C158,105 162,100 160,93" stroke="#99f6e4" stroke-width="1.5" fill="none" stroke-linecap="round"/>
  <text x="150" y="230" text-anchor="middle" font-family="system-ui" font-size="14" font-weight="700" fill="white">Kitchen</text>
</svg>