<svg xmlns="http://www.w3.org/2000/svg" viewBox="0 0 300 300" width="300" height="300">
  <defs>
    <linearGradient id="pg" x1="0%" y1="0%" x2="100%" y2="100%">
      <stop offset="0%" stop-color="#c084fc"/>
      <stop offset="100%" stop-color="#A855F7"/>
    </linearGradient>
  </defs>
  <rect width="300" height="300" rx="24" fill="url(#pg)"/>
  <circle cx="260" cy="40" r="50" fill="white" opacity="0.06"/>
  <circle cx="40" cy="260" r="40" fill="white" opacity="0.06"/>
  <circle cx="150" cy="140" r="65" fill="white"/>
  <!-- Paw pad - main -->
  <ellipse cx="150" cy="148" rx="22" ry="18" fill="#A855F7"/>
  <!-- Toe pads -->
  <ellipse cx="130" cy="125" rx="10" ry="10" fill="#A855F7"/>
  <ellipse cx="150" cy="118" rx="10" ry="10" fill="#A855F7"/>
  <ellipse cx="170" cy="125" rx="10" ry="10" fill="#A855F7"/>
  <ellipse cx="180" cy="138" rx="8" ry="9" fill="#A855F7"/>
  <!-- Inner pad -->
  <ellipse cx="150" cy="150" rx="12" ry="9" fill="#c084fc"/>
  <!-- Inner toes -->
  <ellipse cx="130" cy="125" rx="5" ry="5" fill="#c084fc"/>
  <ellipse cx="150" cy="118" rx="5" ry="5" fill="#c084fc"/>
  <ellipse cx="170" cy="125" rx="5" ry="5" fill="#c084fc"/>
  <ellipse cx="180" cy="138" rx="4" ry="4.5" fill="#c084fc"/>
  <text x="150" y="230" text-anchor="middle" font-family="system-ui" font-size="14" font-weight="700" fill="white">Pets</text>
</svg>