<svg xmlns="http://www.w3.org/2000/svg" viewBox="0 0 100 100" width="100" height="100">
  <defs>
    <linearGradient id="av1" x1="0%" y1="0%" x2="100%" y2="100%">
      <stop offset="0%" stop-color="#6366f1"/>
      <stop offset="100%" stop-color="#4F46E5"/>
    </linearGradient>
  </defs>
  <circle cx="50" cy="50" r="50" fill="url(#av1)"/>
  <!-- Female silhouette -->
  <circle cx="50" cy="35" r="14" fill="white" opacity="0.9"/>
  <!-- Hair -->
  <path d="M36,32 C36,22 44,18 50,18 C56,18 64,22 64,32 C64,28 58,24 50,24 C42,24 36,28 36,32 Z" fill="white" opacity="0.7"/>
  <!-- Body -->
  <path d="M30,72 C30,58 38,52 50,52 C62,52 70,58 70,72" fill="white" opacity="0.9"/>
  <!-- Hair strands -->
  <path d="M36,32 C34,40 36,48 38,52" stroke="white" stroke-width="3" fill="none" opacity="0.5"/>
  <path d="M64,32 C66,40 64,48 62,52" stroke="white" stroke-width="3" fill="none" opacity="0.5"/>
  <!-- Initial -->
  <text x="50" y="88" text-anchor="middle" font-family="system-ui" font-size="16" font-weight="700" fill="white" opacity="0.9">S</text>
</svg>