<svg xmlns="http://www.w3.org/2000/svg" viewBox="0 0 100 100" width="100" height="100">
  <defs>
    <linearGradient id="av3" x1="0%" y1="0%" x2="100%" y2="100%">
      <stop offset="0%" stop-color="#34d399"/>
      <stop offset="100%" stop-color="#10B981"/>
    </linearGradient>
  </defs>
  <circle cx="50" cy="50" r="50" fill="url(#av3)"/>
  <!-- Female silhouette -->
  <circle cx="50" cy="35" r="14" fill="white" opacity="0.9"/>
  <!-- Long hair -->
  <path d="M34,30 C34,20 42,16 50,16 C58,16 66,20 66,30 C66,24 60,20 50,20 C40,20 34,24 34,30 Z" fill="white" opacity="0.7"/>
  <!-- Hair flowing -->
  <path d="M34,30 C32,40 34,52 36,58" stroke="white" stroke-width="4" fill="none" opacity="0.5" stroke-linecap="round"/>
  <path d="M66,30 C68,40 66,52 64,58" stroke="white" stroke-width="4" fill="none" opacity="0.5" stroke-linecap="round"/>
  <!-- Body -->
  <path d="M30,74 C30,58 38,50 50,50 C62,50 70,58 70,74" fill="white" opacity="0.9"/>
  <!-- Necklace -->
  <path d="M40,52 C45,56 55,56 60,52" stroke="#10B981" stroke-width="1" fill="none" opacity="0.5"/>
  <circle cx="50" cy="56" r="1.5" fill="#10B981" opacity="0.5"/>
  <!-- Initial -->
  <text x="50" y="90" text-anchor="middle" font-family="system-ui" font-size="16" font-weight="700" fill="white" opacity="0.9">E</text>
</svg>