<svg xmlns="http://www.w3.org/2000/svg" viewBox="0 0 600 400" width="600" height="400">
  <defs>
    <linearGradient id="b2bg" x1="0%" y1="0%" x2="100%" y2="100%">
      <stop offset="0%" stop-color="#831843"/>
      <stop offset="100%" stop-color="#be185d"/>
    </linearGradient>
  </defs>
  <rect width="600" height="400" rx="12" fill="url(#b2bg)"/>
  <circle cx="500" cy="70" r="70" fill="white" opacity="0.05"/>
  <circle cx="550" cy="340" r="50" fill="white" opacity="0.04"/>
  <!-- T-shirt -->
  <path d="M180,130 L195,115 L220,120 L230,105 L240,120 L265,115 L280,130 L265,140 L265,200 L195,200 L195,140 Z" fill="#ec4899" opacity="0.8"/>
  <!-- Sneaker -->
  <path d="M340,280 L420,280 L425,290 C426,292 424,294 422,294 L338,294 C336,294 334,292 335,290 Z" fill="white" opacity="0.15"/>
  <path d="M342,270 C342,260 355,254 370,254 L410,254 C418,254 425,260 426,268 L426,280 L340,280 Z" fill="#f472b6" opacity="0.6"/>
  <!-- Sunglasses -->
  <ellipse cx="400" cy="160" rx="22" ry="16" fill="#1a1a1a" opacity="0.7"/>
  <ellipse cx="460" cy="160" rx="22" ry="16" fill="#1a1a1a" opacity="0.7"/>
  <path d="M422,160 L438,160" stroke="#1a1a1a" stroke-width="3" opacity="0.7"/>
  <path d="M378,160 L360,155" stroke="#1a1a1a" stroke-width="2.5" opacity="0.7"/>
  <path d="M482,160 L500,155" stroke="#1a1a1a" stroke-width="2.5" opacity="0.7"/>
  <!-- Bag -->
  <rect x="120" y="230" width="60" height="70" rx="6" fill="#f472b6" opacity="0.5"/>
  <path d="M130,230 C130,215 170,215 170,230" stroke="#f472b6" stroke-width="3" fill="none" opacity="0.5"/>
  <!-- Hat -->
  <ellipse cx="480" cy="310" rx="40" ry="10" fill="white" opacity="0.12"/>
  <path d="M450,310 C450,285 510,285 510,310" fill="white" opacity="0.15"/>
  <!-- Tag -->
  <rect x="30" y="30" width="60" height="28" rx="14" fill="#f472b6"/>
  <text x="60" y="49" text-anchor="middle" font-family="system-ui" font-size="12" font-weight="700" fill="white">STYLE</text>
  <text x="30" y="360" font-family="system-ui" font-size="18" font-weight="700" fill="white">Spring Style Guide 2026</text>
  <text x="30" y="382" font-family="system-ui" font-size="12" fill="#fce7f3">Curated fashion picks for every occasion</text>
</svg>