<svg xmlns="http://www.w3.org/2000/svg" viewBox="0 0 200 60" width="200" height="60">
  <rect width="200" height="60" fill="white"/>
  <!-- Apple icon -->
  <path d="M42,18 C43,14 46,11 50,11 C50,11 50,15 48,19 C46,23 42,26 39,24 C39,21 40,18 42,18 Z" fill="#111"/>
  <path d="M50,11 C54,11 57,13 58,17 C59,13 62,10 66,10 C66,10 64,15 60,20 C56,25 50,28 47,26 C47,23 48,15 50,11 Z" fill="#111"/>
  <path d="M39,24 C36,26 32,32 34,38 C36,44 42,46 48,46 C50,46 53,44 56,44 C59,44 61,46 64,46 C70,46 76,40 78,36 C78,36 68,32 66,22 C65,16 70,12 72,10 C68,8 62,10 58,14 C54,18 50,24 48,26 C45,28 41,27 39,24 Z" fill="#111"/>
  <text x="90" y="38" font-family="system-ui" font-size="16" font-weight="700" fill="#111" letter-spacing="1">Apple</text>
</svg>