<svg xmlns="http://www.w3.org/2000/svg" viewBox="0 0 200 60" width="200" height="60">
  <rect width="200" height="60" fill="white"/>
  <!-- Puma jumping cat silhouette -->
  <path d="M30,40 C32,38 35,32 38,30 C40,28 42,28 44,30 C46,32 47,35 50,34 C52,33 54,30 56,26 C58,22 62,18 66,16 C68,15 70,16 70,18 C70,20 68,24 66,26 C64,28 60,32 58,36 C56,40 52,44 48,46 C44,48 38,48 34,46 C32,44 30,42 30,40 Z" fill="#111"/>
  <text x="80" y="38" font-family="system-ui" font-size="16" font-weight="800" fill="#111" letter-spacing="1">PUMA</text>
</svg>