<svg xmlns="http://www.w3.org/2000/svg" viewBox="0 0 600 350" width="600" height="350">
  <defs>
    <linearGradient id="p1bg" x1="0%" y1="0%" x2="100%" y2="100%">
      <stop offset="0%" stop-color="#4F46E5"/>
      <stop offset="100%" stop-color="#7C3AED"/>
    </linearGradient>
    <filter id="p1sh">
      <feDropShadow dx="0" dy="6" stdDeviation="12" flood-opacity="0.25"/>
    </filter>
  </defs>
  <rect width="600" height="350" rx="16" fill="url(#p1bg)"/>
  <circle cx="520" cy="60" r="80" fill="white" opacity="0.05"/>
  <circle cx="550" cy="280" r="60" fill="white" opacity="0.04"/>
  <circle cx="80" cy="320" r="40" fill="white" opacity="0.04"/>
  <!-- Text -->
  <text x="40" y="130" font-family="system-ui" font-size="16" font-weight="600" fill="#c7d2fe" letter-spacing="4">PREMIUM COLLECTION</text>
  <text x="40" y="180" font-family="system-ui" font-size="40" font-weight="900" fill="white">Premium Audio</text>
  <text x="40" y="215" font-family="system-ui" font-size="16" fill="#c7d2fe">Immerse yourself in crystal clear sound</text>
  <rect x="40" y="240" width="150" height="45" rx="22" fill="white"/>
  <text x="115" y="269" text-anchor="middle" font-family="system-ui" font-size="15" font-weight="700" fill="#4F46E5">SHOP NOW</text>
  <!-- Headphones -->
  <g filter="url(#p1sh)" transform="translate(420,180)">
    <path d="M-55,-45 C-55,-85 55,-85 55,-45" stroke="#1a1a1a" stroke-width="12" fill="none" stroke-linecap="round"/>
    <path d="M-53,-43 C-53,-82 53,-82 53,-43" stroke="#333" stroke-width="7" fill="none" stroke-linecap="round"/>
    <rect x="-70" y="-42" width="32" height="50" rx="14" fill="#1a1a1a"/>
    <rect x="-67" y="-38" width="26" height="42" rx="11" fill="#2a2a2a"/>
    <ellipse cx="-54" cy="-18" rx="7" ry="14" fill="none" stroke="#818cf8" stroke-width="2.5" opacity="0.9"/>
    <rect x="38" y="-42" width="32" height="50" rx="14" fill="#1a1a1a"/>
    <rect x="41" y="-38" width="26" height="42" rx="11" fill="#2a2a2a"/>
    <ellipse cx="54" cy="-18" rx="7" ry="14" fill="none" stroke="#818cf8" stroke-width="2.5" opacity="0.9"/>
  </g>
</svg>