<svg xmlns="http://www.w3.org/2000/svg" viewBox="0 0 600 350" width="600" height="350">
  <defs>
    <linearGradient id="p3bg" x1="0%" y1="0%" x2="100%" y2="100%">
      <stop offset="0%" stop-color="#3b82f6"/>
      <stop offset="100%" stop-color="#2563eb"/>
    </linearGradient>
    <filter id="p3sh">
      <feDropShadow dx="0" dy="6" stdDeviation="12" flood-opacity="0.25"/>
    </filter>
  </defs>
  <rect width="600" height="350" rx="16" fill="url(#p3bg)"/>
  <circle cx="520" cy="55" r="75" fill="white" opacity="0.05"/>
  <circle cx="480" cy="310" r="55" fill="white" opacity="0.04"/>
  <circle cx="70" cy="310" r="30" fill="white" opacity="0.04"/>
  <text x="40" y="130" font-family="system-ui" font-size="16" font-weight="600" fill="#bfdbfe" letter-spacing="4">TRENDING FOOTWEAR</text>
  <text x="40" y="180" font-family="system-ui" font-size="40" font-weight="900" fill="white">Fresh Kicks</text>
  <text x="40" y="215" font-family="system-ui" font-size="16" fill="#bfdbfe">Step up your sneaker game</text>
  <rect x="40" y="240" width="150" height="45" rx="22" fill="white"/>
  <text x="115" y="269" text-anchor="middle" font-family="system-ui" font-size="15" font-weight="700" fill="#3b82f6">SHOP NOW</text>
  <!-- Sneaker -->
  <g filter="url(#p3sh)" transform="translate(420,200) rotate(-10)">
    <path d="M-80,30 L80,30 L88,42 C90,45 86,48 82,48 L-72,48 C-78,48 -86,45 -87,42 Z" fill="#e5e7eb"/>
    <path d="M-75,22 L85,22 L80,30 L-80,30 Z" fill="white"/>
    <path d="M-72,-18 C-72,-38 -48,-50 -16,-50 L48,-50 C64,-50 82,-40 86,-28 L86,22 L-75,22 Z" fill="#3b82f6"/>
    <path d="M-72,-18 C-72,-35 -55,-48 -35,-50 L-16,-50 L-16,22 L-75,22 Z" fill="#2563eb"/>
    <path d="M8,-50 C8,-68 20,-72 32,-66 L42,-50 Z" fill="#60a5fa"/>
    <path d="M-48,0 C-16,-22 34,-18 74,-4" stroke="white" stroke-width="3.5" fill="none" stroke-linecap="round"/>
    <circle cx="0" cy="-38" r="2" fill="#1d4ed8"/>
    <circle cx="12" cy="-40" r="2" fill="#1d4ed8"/>
    <circle cx="24" cy="-38" r="2" fill="#1d4ed8"/>
    <circle cx="36" cy="-36" r="2" fill="#1d4ed8"/>
    <path d="M-2,-40 L10,-41 M9,-40 L22,-38 M21,-40 L34,-38" stroke="white" stroke-width="1.2" fill="none" stroke-linecap="round"/>
  </g>
</svg>