<svg xmlns="http://www.w3.org/2000/svg" viewBox="0 0 600 350" width="600" height="350">
  <defs>
    <linearGradient id="p2bg" x1="0%" y1="0%" x2="100%" y2="100%">
      <stop offset="0%" stop-color="#ec4899"/>
      <stop offset="100%" stop-color="#f43f5e"/>
    </linearGradient>
    <filter id="p2sh">
      <feDropShadow dx="0" dy="6" stdDeviation="12" flood-opacity="0.25"/>
    </filter>
  </defs>
  <rect width="600" height="350" rx="16" fill="url(#p2bg)"/>
  <circle cx="530" cy="50" r="70" fill="white" opacity="0.05"/>
  <circle cx="500" cy="300" r="50" fill="white" opacity="0.04"/>
  <circle cx="60" cy="330" r="35" fill="white" opacity="0.04"/>
  <text x="40" y="130" font-family="system-ui" font-size="16" font-weight="600" fill="#fce7f3" letter-spacing="4">SMART DEVICES</text>
  <text x="40" y="180" font-family="system-ui" font-size="40" font-weight="900" fill="white">Smart Wearables</text>
  <text x="40" y="215" font-family="system-ui" font-size="16" fill="#fce7f3">Stay connected, stay ahead</text>
  <rect x="40" y="240" width="150" height="45" rx="22" fill="white"/>
  <text x="115" y="269" text-anchor="middle" font-family="system-ui" font-size="15" font-weight="700" fill="#ec4899">SHOP NOW</text>
  <!-- Watch -->
  <g filter="url(#p2sh)" transform="translate(430,180)">
    <rect x="-12" y="-75" width="24" height="40" rx="5" fill="#1a1a1a"/>
    <rect x="-12" y="35" width="24" height="40" rx="5" fill="#1a1a1a"/>
    <rect x="-32" y="-35" width="64" height="70" rx="16" fill="#1a1a1a"/>
    <rect x="-28" y="-31" width="56" height="62" rx="13" fill="#2a2a2a"/>
    <rect x="-23" y="-26" width="46" height="52" rx="10" fill="#0f172a"/>
    <text x="0" y="2" text-anchor="middle" font-family="system-ui" font-size="18" font-weight="700" fill="white">10:08</text>
    <text x="0" y="14" text-anchor="middle" font-family="system-ui" font-size="6" fill="#94a3b8">TUE, JUL 16</text>
    <rect x="12" y="-21" width="9" height="5" rx="1" fill="none" stroke="#22c55e" stroke-width="0.8"/>
    <rect x="13" y="-20" width="6" height="3" rx="0.5" fill="#22c55e"/>
    <rect x="32" y="-6" width="4" height="12" rx="2" fill="#444"/>
    <circle cx="-8" cy="-12" r="3" fill="none" stroke="#f43f5e" stroke-width="1.2" opacity="0.7"/>
    <circle cx="-8" cy="-12" r="1.5" fill="none" stroke="#22c55e" stroke-width="1.2" opacity="0.7"/>
  </g>
</svg>